<svg xmlns="http://www.w3.org/2000/svg" enable-background="new 0 0 24 24" viewBox="0 0 24 24"><path fill="#37474F" d="M2.27,3.081c-0.154,0.023-0.302,0.585-0.6,0.878C1.451,4.17,1.18,4.158,1.035,4.419c-0.055,0.097-0.037,0.264-0.1,0.424c-0.122,0.32-0.55,0.348-0.55,0.697C0.384,5.917,0.742,5.988,1.053,6.256c0.243,0.214,0.266,0.363,0.56,0.467c0.251,0.084,0.624-0.192,0.959-0.092c0.276,0.081,0.54,0.139,0.602,0.42C3.229,7.309,3.17,7.71,2.836,7.664C2.723,7.651,2.234,7.489,1.635,7.551C0.91,7.633,0.084,7.867,0.003,8.667c-0.045,0.447,0.514,0.974,1.053,0.867c0.373-0.073,0.197-0.508,0.399-0.72C1.721,8.543,3.229,9.759,4.63,9.759c0.59,0,1.029-0.148,1.465-0.6c0.041-0.035,0.09-0.108,0.154-0.113c0.059,0.005,0.163,0.063,0.197,0.087c1.129,0.898,1.982,2.7,6.131,2.721c0.584,0.004,1.248,0.279,1.791,0.769c0.484,0.443,0.767,1.133,1.042,1.832c0.416,1.049,1.159,2.07,2.287,3.206c0.062,0.061,0.991,0.776,1.065,0.829c0.012,0.008,0.08,0.169,0.056,0.259c-0.028,0.681-0.128,2.662,1.364,2.751c0.364,0.019,0.269-0.236,0.269-0.41c-0.001-0.345-0.064-0.688,0.119-1.041c0.251-0.486-0.532-0.709-0.51-1.76c0.017-0.783-0.648-0.65-0.985-1.246c-0.194-0.346-0.367-0.529-0.354-0.952c0.076-2.379-0.511-3.942-0.804-4.326c-0.229-0.29-0.418-0.405-0.208-0.539c1.244-0.814,1.527-1.571,1.527-1.571c0.662-1.54,1.257-2.947,2.078-3.567c0.165-0.128,0.589-0.442,0.849-0.564c0.767-0.358,1.17-0.574,1.392-0.789c0.351-0.339,0.63-1.048,0.293-1.477c-0.42-0.53-1.146-0.109-1.466,0.079c-2.288,1.344-2.625,3.716-3.418,5.078c-0.633,1.089-1.661,1.888-2.58,1.953c-0.689,0.051-1.432-0.087-2.171-0.409c-1.799-0.781-2.783-1.789-3.016-1.967c-0.483-0.369-4.236-4.016-7.275-4.165c0,0-0.378-0.748-0.472-0.76C3.228,3.039,3,3.513,2.837,3.569C2.683,3.621,2.425,3.056,2.27,3.081L2.27,3.081L2.27,3.081z"/></svg>